<?xml version="1.0" encoding="UTF-8" standalone="no"?><!DOCTYPE svg PUBLIC "-//W3C//DTD SVG 1.1//EN" "http://www.w3.org/Graphics/SVG/1.1/DTD/svg11.dtd"><svg width="100%" height="100%" viewBox="0 0 2014 681" version="1.1" xmlns="http://www.w3.org/2000/svg" xmlns:xlink="http://www.w3.org/1999/xlink" xml:space="preserve" xmlns:serif="http://www.serif.com/" style="fill-rule:evenodd;clip-rule:evenodd;stroke-linejoin:round;stroke-miterlimit:2;"><rect id="Page-1" serif:id="Page 1" x="0" y="0" width="2013.208" height="680.625" style="fill:none;"/><g id="Layer-1" serif:id="Layer 1"><path d="M525.102,320.398l-0.647,0l11.841,-43.501l30.766,-111.533c16.186,-0.844 36.038,-1.267 49.151,-1.267c21.217,0 32.532,12.022 32.532,28.996c0,4.243 -1.414,9.901 -2.122,12.731l-10.31,37.19l-111.212,77.384Zm151.934,-129.426c0,-33.949 -22.631,-54.458 -63.651,-54.458c-13.05,0 -25.747,0.362 -38.589,0.821l37.881,-137.321l-30.411,0l-66.864,242.982l-111.239,77.402l-1.075,0l49.752,-183.884l-30.412,0l-28.542,105.899l-112.075,77.985l-0.768,0l50.151,-183.884l-30.412,0l-66.48,244l0.334,-0.288l-9.53,33.528c-0.706,2.828 -1.414,7.778 -1.414,11.316c0,10.609 5.658,16.974 14.144,16.974c4.951,0 11.316,-2.83 17.681,-7.073l105.338,-72.847l0.764,0l-9.405,34.899l-4.756,16.731c-1.414,4.243 -1.414,7.778 -1.414,11.316c0,10.609 5.658,16.974 14.144,16.974c4.951,0 11.317,-2.83 17.681,-7.073l104.317,-72.139l0.238,0l-8.368,30.412l0.209,-0.138l-5.867,20.648c-1.415,4.243 -1.415,7.778 -1.415,11.316c0,10.609 5.658,16.974 14.146,16.974c4.951,0 11.315,-2.83 17.681,-7.073l142.157,-98.308l32.533,-119.524c2.121,-7.78 3.535,-17.681 3.535,-26.168" style="fill:#030405;fill-rule:nonzero;"/><path d="M1804.387,0.014l-30.412,0l-28.289,103.967l30.411,0l28.29,-103.967Z" style="fill:#030405;fill-rule:nonzero;"/><path d="M1684.155,0.014l-30.412,0l-28.289,103.967l30.412,0l28.289,-103.967Z" style="fill:#030405;fill-rule:nonzero;"/><path d="M918.915,0.014l-30.412,0l-28.289,103.967l30.412,0l28.289,-103.967Z" style="fill:#030405;fill-rule:nonzero;"/><path d="M1814.289,208.653c7.78,-28.998 26.168,-43.142 55.165,-43.142l47.616,-0.492l-21.02,77.413l-112.049,77.965l-0.571,0l30.859,-111.744Zm198.03,38.191l-105.897,73.554l-1.142,0l49.752,-183.884l-89.821,1.414c-41.729,0.708 -67.189,19.095 -78.505,60.116l-55.645,202.468l-3.763,13.243c-0.708,2.828 -1.414,7.778 -1.414,11.315c0,10.61 5.657,16.974 14.145,16.974c4.951,0 11.315,-2.83 17.681,-7.073l105.338,-72.846l0.501,0l-12.484,45.972l0.203,-0.032l-1.616,5.69c-0.708,2.828 -1.414,7.778 -1.414,11.315c0,10.61 5.657,16.974 14.144,16.974c4.951,0 11.316,-2.83 17.681,-7.073l100.43,-69.31l32.532,-118.818l-0.706,0Z" style="fill:#030405;fill-rule:nonzero;"/><path d="M1225.152,201.579c5.658,-20.509 24.047,-36.069 45.972,-36.069l54.767,-0.513l-20.728,77.082l-111.963,77.611l-0.826,0l32.778,-118.111Zm514.168,-65.065l-28.706,105.029l-113.326,78.854l-1.075,0l49.752,-183.884l-30.412,0l-24.356,90.093l-155.262,96.619l-0.842,0l31.938,-114.574c7.78,-28.29 25.461,-41.729 54.458,-42.435l43.85,-1.415l8.488,-28.289l-55.873,1.414c-41.727,0.708 -67.189,19.095 -78.505,60.116l-12.188,44.309l-112.164,78.045l-1.075,0l49.752,-183.884l-89.821,1.414c-41.727,0.708 -67.188,19.095 -78.505,60.116l-12.386,45.042c-37.776,30.326 -75.553,60.293 -113.33,90.749l-0.687,0l36.365,-132.664l67.406,-63.951l0,-0.706l-38.191,1.414l-166.433,153.473l-0.173,0l80.32,-291.386l-30.411,0l-65.169,237.373l-119.299,83.011l-1.075,0l49.752,-183.884l-30.412,0l-27.199,100.95l-119.641,82.933l-0.781,0l88.213,-320.384l-30.411,0l-110.331,403.132l0.098,-0.084l-2.928,10.693c-1.414,4.243 -1.414,7.778 -1.414,11.316c0,10.609 5.658,16.973 14.144,16.973c4.951,0 11.316,-2.829 17.681,-7.072l112.498,-77.797l0.618,0l-10.303,38.24l-5.212,18.341c-0.708,2.828 -1.414,7.778 -1.414,11.316c0,10.609 5.657,16.973 14.144,16.973c4.951,0 11.315,-2.829 17.681,-7.072l111.001,-76.382l1.075,0l-16.598,55.165c-0.708,3.535 -1.415,7.073 -1.415,9.901c0,11.316 6.366,18.387 15.56,18.387c6.364,0 13.438,-3.536 19.803,-9.194l100.499,-80.626l0.466,0c-17.079,58.783 -19.632,69.008 -19.632,72.139c0,10.609 4.952,17.681 14.854,17.681c7.072,0 14.85,-4.243 22.63,-9.901l94.561,-69.306l-13.935,50.918c-0.708,2.828 -1.414,7.778 -1.414,11.316c0,10.609 5.657,16.973 14.144,16.973c4.951,0 11.316,-2.829 17.681,-7.072l105.338,-72.847l1.088,0l-3.324,12.357l-11.161,39.273c-0.708,2.828 -1.414,7.778 -1.414,11.316c0,10.609 5.657,16.973 14.144,16.973c4.951,0 11.315,-2.829 17.681,-7.072l104.814,-72.847l0.566,0l-14.854,54.458c-0.707,2.829 -2.122,8.488 -2.122,12.023c0,9.901 5.658,16.267 14.852,16.267c4.951,0 10.61,-1.414 16.976,-5.658l148.921,-92.649l0.809,0l-16.061,59.409l0.091,-0.008l-2.212,7.788c-0.708,2.828 -1.416,7.778 -1.416,11.316c0,10.609 5.659,16.973 14.146,16.973c4.951,0 11.316,-2.829 17.681,-7.072l106.361,-73.554l0.492,0l-56.638,207.223l30.411,0l118.111,-432.126l-30.412,0Z" style="fill:#030405;fill-rule:nonzero;"/><path d="M191.866,164.097c21.217,0 32.533,11.316 32.533,28.289c0,4.245 -0.708,8.488 -2.123,13.438l-9.625,35.238l-114.019,79.336l-0.762,0l42.166,-155.63c17.276,-0.382 34.552,-0.671 51.829,-0.671m57.287,51.628c2.828,-9.194 3.535,-17.681 3.535,-25.461c0,-33.948 -23.338,-53.75 -64.359,-53.75c-24.046,0 -47.385,0.706 -71.431,1.414l-7.78,27.583c0.103,-0.003 0.205,-0.005 0.309,-0.008l-73.808,272.416l-7.834,28.172l0.248,-0.171l-27.83,102.722l30.411,0l34.86,-128.665l151.146,-104.727l32.533,-119.524Z" style="fill:#030405;fill-rule:nonzero;"/><path d="M638.221,602.969l0,-12.115l-72.816,0l0,12.115l29.255,0l0,75.522l14.434,0l0,-75.522l29.126,0Z" style="fill:#030405;fill-rule:nonzero;"/><path d="M661.794,647.432l13.027,-34.154l2.577,-8.517l2.578,8.517l13.027,34.154l-31.208,0Zm7.485,-56.578l-33.766,87.638l14.434,0l7.522,-19.719l39.859,0l7.521,19.719l15.079,0l-33.766,-87.638l-16.883,0Z" style="fill:#030405;fill-rule:nonzero;"/><path d="M790.165,590.854l-72.816,0l0,12.115l29.255,0l0,75.522l14.434,0l0,-75.522l29.126,0l0,-12.115Z" style="fill:#030405;fill-rule:nonzero;"/><path d="M873.032,590.854l-72.816,0l0,12.115l29.255,0l0,75.522l14.434,0l0,-75.522l29.126,0l0,-12.115Z" style="fill:#030405;fill-rule:nonzero;"/><path d="M946.556,652.522c-2.19,4.942 -5.328,8.764 -9.408,11.471c-4.082,2.706 -8.957,4.06 -14.628,4.06c-5.757,0 -10.676,-1.354 -14.756,-4.06c-4.082,-2.706 -7.218,-6.528 -9.409,-11.471c-2.191,-4.94 -3.286,-10.846 -3.286,-17.721c0,-6.959 1.095,-12.929 3.286,-17.914c2.191,-4.981 5.327,-8.829 9.409,-11.535c4.08,-2.706 8.999,-4.06 14.756,-4.06c5.671,0 10.546,1.354 14.628,4.06c4.08,2.706 7.218,6.553 9.408,11.535c2.191,4.985 3.286,10.955 3.286,17.914c0,6.875 -1.095,12.781 -3.286,17.721m-1.675,-57.802c-6.315,-3.693 -13.769,-5.542 -22.36,-5.542c-8.679,0 -16.174,1.849 -22.49,5.542c-6.315,3.695 -11.17,8.958 -14.563,15.788c-3.395,6.83 -5.091,14.929 -5.091,24.293c0,9.366 1.695,17.443 5.091,24.23c3.393,6.788 8.248,12.007 14.563,15.659c6.316,3.652 13.81,5.477 22.49,5.477c8.591,0 16.045,-1.824 22.36,-5.477c6.315,-3.651 11.169,-8.871 14.564,-15.659c3.393,-6.787 5.091,-14.864 5.091,-24.23c0,-9.364 -1.698,-17.463 -5.091,-24.293c-3.395,-6.83 -8.249,-12.092 -14.564,-15.788" style="fill:#030405;fill-rule:nonzero;"/><path d="M1045.921,652.522c-2.191,4.942 -5.329,8.764 -9.408,11.471c-4.082,2.706 -8.957,4.06 -14.628,4.06c-5.757,0 -10.676,-1.354 -14.757,-4.06c-4.081,-2.706 -7.217,-6.528 -9.408,-11.471c-2.191,-4.94 -3.286,-10.846 -3.286,-17.721c0,-6.959 1.095,-12.929 3.286,-17.914c2.191,-4.981 5.327,-8.829 9.408,-11.535c4.081,-2.706 8.999,-4.06 14.757,-4.06c5.671,0 10.546,1.354 14.628,4.06c4.079,2.706 7.217,6.553 9.408,11.535c2.191,4.985 3.286,10.955 3.286,17.914c0,6.875 -1.095,12.781 -3.286,17.721m-1.676,-57.802c-6.314,-3.693 -13.769,-5.542 -22.36,-5.542c-8.679,0 -16.175,1.849 -22.49,5.542c-6.315,3.695 -11.171,8.958 -14.564,15.788c-3.395,6.83 -5.09,14.929 -5.09,24.293c0,9.366 1.695,17.443 5.09,24.23c3.393,6.788 8.249,12.007 14.564,15.659c6.315,3.652 13.81,5.477 22.49,5.477c8.59,0 16.045,-1.824 22.36,-5.477c6.315,-3.651 11.169,-8.871 14.564,-15.659c3.393,-6.787 5.091,-14.864 5.091,-24.23c0,-9.364 -1.698,-17.463 -5.091,-24.293c-3.395,-6.83 -8.249,-12.092 -14.564,-15.788" style="fill:#030405;fill-rule:nonzero;"/><path d="M1166.55,634.996c-2.535,-1.847 -5.371,-3.307 -8.506,-4.382c-3.138,-1.073 -6.379,-1.933 -9.73,-2.578c-3.35,-0.644 -6.595,-1.288 -9.73,-1.933c-3.137,-0.644 -5.992,-1.46 -8.57,-2.449c-2.578,-0.987 -4.597,-2.362 -6.057,-4.125c-1.463,-1.759 -2.191,-4.102 -2.191,-7.023c0,-3.435 1.394,-6.207 4.188,-8.313c2.791,-2.104 6.68,-3.157 11.663,-3.157c5.156,0 9.409,1.246 12.759,3.737c3.35,2.493 5.627,6.444 6.831,11.857l15.336,0c-1.031,-6.444 -3.18,-11.663 -6.443,-15.659c-3.266,-3.995 -7.326,-6.959 -12.179,-8.892c-4.855,-1.934 -10.162,-2.9 -15.917,-2.9c-6.702,0 -12.352,1.118 -16.947,3.351c-4.598,2.234 -8.099,5.22 -10.503,8.957c-2.407,3.737 -3.61,7.797 -3.61,12.178c0,4.47 0.752,8.119 2.255,10.956c1.503,2.835 3.522,5.135 6.057,6.894c2.534,1.762 5.368,3.158 8.506,4.189c3.135,1.031 6.379,1.891 9.73,2.577c3.35,0.689 6.593,1.398 9.73,2.127c3.135,0.731 5.992,1.634 8.57,2.706c2.578,1.075 4.596,2.578 6.057,4.511c1.459,1.934 2.19,4.446 2.19,7.54c0,3.952 -1.546,7.133 -4.639,9.537c-3.093,2.406 -7.648,3.609 -13.662,3.609c-5.843,0 -10.567,-1.309 -14.176,-3.931c-3.608,-2.62 -6.057,-6.422 -7.346,-11.406l-15.079,0c1.203,6.102 3.458,11.171 6.767,15.207c3.306,4.041 7.474,7.046 12.502,9.023c5.026,1.975 10.761,2.963 17.205,2.963c6.444,0 12.157,-1.03 17.141,-3.093c4.981,-2.061 8.912,-5.111 11.792,-9.15c2.878,-4.038 4.318,-8.935 4.318,-14.693c0,-4.466 -0.753,-8.161 -2.255,-11.083c-1.504,-2.92 -3.525,-5.304 -6.057,-7.153" style="fill:#030405;fill-rule:nonzero;"/><path d="M1248.322,627.585l-42.53,0l0,-36.731l-14.435,0l0,87.637l14.435,0l0,-39.179l42.53,0l0,39.179l14.434,0l0,-87.637l-14.434,0l0,36.731Z" style="fill:#030405;fill-rule:nonzero;"/><path d="M1347.235,652.522c-2.191,4.942 -5.329,8.764 -9.408,11.471c-4.082,2.706 -8.957,4.06 -14.628,4.06c-5.757,0 -10.676,-1.354 -14.757,-4.06c-4.081,-2.706 -7.217,-6.528 -9.408,-11.471c-2.191,-4.94 -3.286,-10.846 -3.286,-17.721c0,-6.959 1.095,-12.929 3.286,-17.914c2.191,-4.981 5.327,-8.829 9.408,-11.535c4.081,-2.706 8.999,-4.06 14.757,-4.06c5.671,0 10.546,1.354 14.628,4.06c4.079,2.706 7.217,6.553 9.408,11.535c2.191,4.985 3.286,10.955 3.286,17.914c0,6.875 -1.095,12.781 -3.286,17.721m-1.676,-57.802c-6.314,-3.693 -13.769,-5.542 -22.36,-5.542c-8.679,0 -16.175,1.849 -22.49,5.542c-6.316,3.695 -11.171,8.958 -14.564,15.788c-3.395,6.83 -5.09,14.929 -5.09,24.293c0,9.366 1.695,17.443 5.09,24.23c3.393,6.788 8.248,12.007 14.564,15.659c6.315,3.652 13.81,5.477 22.49,5.477c8.59,0 16.045,-1.824 22.36,-5.477c6.315,-3.651 11.169,-8.871 14.564,-15.659c3.393,-6.787 5.091,-14.864 5.091,-24.23c0,-9.364 -1.698,-17.463 -5.091,-24.293c-3.395,-6.83 -8.249,-12.092 -14.564,-15.788" style="fill:#030405;fill-rule:nonzero;"/><path d="M1428.105,631.322c-3.266,3.008 -7.905,4.511 -13.918,4.511l-16.239,0l0,-33.38l16.625,0c5.755,0 10.265,1.505 13.532,4.511c3.265,3.01 4.897,7.088 4.897,12.244c0,5.071 -1.633,9.109 -4.897,12.115m15.723,-27.387c-2.664,-4.166 -6.466,-7.388 -11.405,-9.666c-4.942,-2.275 -10.848,-3.415 -17.721,-3.415l-31.188,0l0,87.638l14.434,0l0,-31.06l17.012,0c9.966,0 17.934,-2.469 23.906,-7.41c5.971,-4.94 8.957,-11.922 8.957,-20.943c0,-5.929 -1.333,-10.975 -3.996,-15.144" style="fill:#030405;fill-rule:nonzero;"/></g></svg>