<?xml version="1.0" encoding="UTF-8" standalone="no"?><!DOCTYPE svg PUBLIC "-//W3C//DTD SVG 1.1//EN" "http://www.w3.org/Graphics/SVG/1.1/DTD/svg11.dtd"><svg width="100%" height="100%" viewBox="0 0 2013 569" version="1.1" xmlns="http://www.w3.org/2000/svg" xmlns:xlink="http://www.w3.org/1999/xlink" xml:space="preserve" xmlns:serif="http://www.serif.com/" style="fill-rule:evenodd;clip-rule:evenodd;stroke-linejoin:round;stroke-miterlimit:2;"><path d="M524.9,320.386l-0.647,0l11.841,-43.501l30.766,-111.533c16.186,-0.844 36.038,-1.267 49.151,-1.267c21.217,0 32.532,12.022 32.532,28.996c0,4.243 -1.414,9.901 -2.122,12.731l-10.31,37.19l-111.212,77.384l0.001,0Zm151.934,-129.426c0,-33.949 -22.631,-54.458 -63.651,-54.458c-13.05,0 -25.747,0.362 -38.589,0.821l37.881,-137.321l-30.411,0l-66.864,242.982l-111.239,77.402l-1.075,0l49.752,-183.884l-30.412,0l-28.542,105.899l-112.075,77.985l-0.768,0l50.151,-183.884l-30.412,0l-66.48,244l0.334,-0.288l-9.53,33.528c-0.706,2.828 -1.414,7.778 -1.414,11.316c0,10.609 5.658,16.974 14.144,16.974c4.951,0 11.316,-2.83 17.681,-7.073l105.338,-72.847l0.764,0l-9.405,34.899l-4.756,16.731c-1.414,4.243 -1.414,7.778 -1.414,11.316c0,10.609 5.658,16.974 14.144,16.974c4.951,0 11.317,-2.83 17.681,-7.073l104.317,-72.139l0.238,0l-8.368,30.412l0.209,-0.138l-5.867,20.648c-1.415,4.243 -1.415,7.778 -1.415,11.316c0,10.609 5.658,16.974 14.146,16.974c4.951,0 11.315,-2.83 17.681,-7.073l142.157,-98.308l32.533,-119.524c2.121,-7.78 3.535,-17.681 3.535,-26.168" style="fill:#030405;fill-rule:nonzero;"/><path d="M1804.185,0.002l-30.412,0l-28.289,103.967l30.411,0l28.29,-103.967Z" style="fill:#030405;fill-rule:nonzero;"/><path d="M1683.953,0.002l-30.412,0l-28.289,103.967l30.412,0l28.289,-103.967Z" style="fill:#030405;fill-rule:nonzero;"/><path d="M918.713,0.002l-30.412,0l-28.289,103.967l30.412,0l28.289,-103.967Z" style="fill:#030405;fill-rule:nonzero;"/><path d="M1814.087,208.641c7.78,-28.998 26.168,-43.142 55.165,-43.142l47.616,-0.492l-21.02,77.413l-112.049,77.965l-0.571,0l30.859,-111.744Zm198.03,38.191l-105.897,73.554l-1.142,0l49.752,-183.884l-89.821,1.414c-41.729,0.708 -67.189,19.095 -78.505,60.116l-55.645,202.468l-3.763,13.243c-0.708,2.828 -1.414,7.778 -1.414,11.315c0,10.61 5.657,16.974 14.145,16.974c4.951,0 11.315,-2.83 17.681,-7.073l105.338,-72.846l0.501,0l-12.484,45.972l0.203,-0.032l-1.616,5.69c-0.708,2.828 -1.414,7.778 -1.414,11.315c0,10.61 5.657,16.974 14.144,16.974c4.951,0 11.316,-2.83 17.681,-7.073l100.43,-69.31l32.532,-118.818l-0.706,0l-0,0.001Z" style="fill:#030405;fill-rule:nonzero;"/><path d="M1224.95,201.567c5.658,-20.509 24.047,-36.069 45.972,-36.069l54.767,-0.513l-20.728,77.082l-111.963,77.611l-0.826,0l32.778,-118.111Zm514.168,-65.065l-28.706,105.029l-113.326,78.854l-1.075,0l49.752,-183.884l-30.412,0l-24.356,90.093l-155.262,96.619l-0.842,0l31.938,-114.574c7.78,-28.29 25.461,-41.729 54.458,-42.435l43.85,-1.415l8.488,-28.289l-55.873,1.414c-41.727,0.708 -67.189,19.095 -78.505,60.116l-12.188,44.309l-112.164,78.045l-1.075,0l49.752,-183.884l-89.821,1.414c-41.727,0.708 -67.188,19.095 -78.505,60.116l-12.386,45.042c-37.776,30.326 -75.553,60.293 -113.33,90.749l-0.687,0l36.365,-132.664l67.406,-63.951l0,-0.706l-38.191,1.414l-166.433,153.473l-0.173,0l80.32,-291.386l-30.411,0l-65.169,237.373l-119.299,83.011l-1.075,0l49.752,-183.884l-30.412,0l-27.199,100.95l-119.641,82.933l-0.781,0l88.213,-320.384l-30.411,0l-110.331,403.132l0.098,-0.084l-2.928,10.693c-1.414,4.243 -1.414,7.778 -1.414,11.316c0,10.609 5.658,16.973 14.144,16.973c4.951,0 11.316,-2.829 17.681,-7.072l112.498,-77.797l0.618,0l-10.303,38.24l-5.212,18.341c-0.708,2.828 -1.414,7.778 -1.414,11.316c0,10.609 5.657,16.973 14.144,16.973c4.951,0 11.315,-2.829 17.681,-7.072l111.001,-76.382l1.075,0l-16.598,55.165c-0.708,3.535 -1.415,7.073 -1.415,9.901c0,11.316 6.366,18.387 15.56,18.387c6.364,0 13.438,-3.536 19.803,-9.194l100.499,-80.626l0.466,0c-17.079,58.783 -19.632,69.008 -19.632,72.139c0,10.609 4.952,17.681 14.854,17.681c7.072,0 14.85,-4.243 22.63,-9.901l94.561,-69.306l-13.935,50.918c-0.708,2.828 -1.414,7.778 -1.414,11.316c0,10.609 5.657,16.973 14.144,16.973c4.951,0 11.316,-2.829 17.681,-7.072l105.338,-72.847l1.088,0l-3.324,12.357l-11.161,39.273c-0.708,2.828 -1.414,7.778 -1.414,11.316c0,10.609 5.657,16.973 14.144,16.973c4.951,0 11.315,-2.829 17.681,-7.072l104.814,-72.847l0.566,0l-14.854,54.458c-0.707,2.829 -2.122,8.488 -2.122,12.023c0,9.901 5.658,16.267 14.852,16.267c4.951,0 10.61,-1.414 16.976,-5.658l148.921,-92.649l0.809,0l-16.061,59.409l0.091,-0.008l-2.212,7.788c-0.708,2.828 -1.416,7.778 -1.416,11.316c0,10.609 5.659,16.973 14.146,16.973c4.951,0 11.316,-2.829 17.681,-7.072l106.361,-73.554l0.492,0l-56.638,207.223l30.411,0l118.111,-432.126l-30.412,0l0.004,0.001Z" style="fill:#030405;fill-rule:nonzero;"/><path d="M191.664,164.085c21.217,0 32.533,11.316 32.533,28.289c0,4.245 -0.708,8.488 -2.123,13.438l-9.625,35.238l-114.019,79.336l-0.762,0l42.166,-155.63c17.276,-0.382 34.552,-0.671 51.829,-0.671m57.287,51.628c2.828,-9.194 3.535,-17.681 3.535,-25.461c0,-33.948 -23.338,-53.75 -64.359,-53.75c-24.046,0 -47.385,0.706 -71.431,1.414l-7.78,27.583c0.103,-0.003 0.205,-0.005 0.309,-0.008l-73.808,272.416l-7.834,28.172l0.248,-0.171l-27.83,102.722l30.411,0l34.86,-128.665l151.146,-104.727l32.533,-119.524l-0,-0.001Z" style="fill:#030405;fill-rule:nonzero;"/></svg>